<?xml version="1.0" encoding="UTF-8"?>
<svg id="Layer_1" xmlns="http://www.w3.org/2000/svg" version="1.1" viewBox="0 0 256 256">
  <!-- Generator: Adobe Illustrator 30.2.1, SVG Export Plug-In . SVG Version: 2.1.1 Build 1)  -->
  <defs>
    <style>
      .st0, .st1 {
        fill: #fff;
      }

      .st1 {
        display: none;
      }

      .st2 {
        fill: #a9bacd;
      }
    </style>
  </defs>
  <rect class="st0" width="256" height="256" rx="60" ry="60"/>
  <path class="st1" d="M134,33c35.14,0,65.83,19.09,82.26,47.46l-.16-.27-41.35,23.81c-8.15-13.79-23.08-23.1-40.21-23.29h-.54c-26.13,0-47.31,21.18-47.31,47.3,0,8.54,2.28,16.55,6.24,23.47,8.15,14.24,23.48,23.84,41.07,23.84s33.11-9.72,41.22-24.11l-.2.34,41.29,23.92c-16.25,28.13-46.52,47.16-81.25,47.54h-1.06c-35.26,0-66.03-19.2-82.42-47.72-8-13.92-12.58-30.06-12.58-47.28,0-52.47,42.53-95,95-95h0Z"/>
  <g id="layer1">
    <g id="text1719">
      <path id="path1771" class="st2" d="M248.91,99.29C242.48,36.82,200.95,0,126.65,0,58.77,0,5.41,48.98,5.41,127.67s48.63,128.34,129.02,128.34c64.18,0,109.1-37.83,116.17-100.64h-76.66c-3.04,23.31-15.2,41.21-40.87,41.21-40.52,0-47.96-32.09-47.96-66.2,0-46.95,16.89-70.93,44.92-70.93,24.99,0,40.87,14.52,43.24,39.85h75.65-.02Z"/>
    </g>
  </g>
</svg>